<mxfile host="app.diagrams.net" modified="2022-10-06T14:44:30.797Z" agent="5.0 (Macintosh; Intel Mac OS X 10_15_7) AppleWebKit/537.36 (KHTML, like Gecko) Chrome/105.0.0.0 Safari/537.36" etag="D4pYBIlEz5UvPGg2rngB" version="20.4.0" type="github">
  <diagram id="48fIDbgPl32yq7FlTch4" name="Page-1">
    <mxGraphModel dx="1298" dy="834" grid="1" gridSize="10" guides="1" tooltips="1" connect="1" arrows="1" fold="1" page="1" pageScale="1" pageWidth="827" pageHeight="1169" math="0" shadow="0">
      <root>
        <mxCell id="0" />
        <mxCell id="1" parent="0" />
        <mxCell id="MHFzVE-wFv_tkDTykQoz-9" style="edgeStyle=orthogonalEdgeStyle;rounded=0;orthogonalLoop=1;jettySize=auto;html=1;exitX=0.5;exitY=1;exitDx=0;exitDy=0;" edge="1" parent="1" source="MHFzVE-wFv_tkDTykQoz-1" target="MHFzVE-wFv_tkDTykQoz-4">
          <mxGeometry relative="1" as="geometry" />
        </mxCell>
        <mxCell id="MHFzVE-wFv_tkDTykQoz-10" style="edgeStyle=orthogonalEdgeStyle;rounded=0;orthogonalLoop=1;jettySize=auto;html=1;exitX=0.5;exitY=1;exitDx=0;exitDy=0;entryX=0.5;entryY=0;entryDx=0;entryDy=0;" edge="1" parent="1" source="MHFzVE-wFv_tkDTykQoz-1" target="MHFzVE-wFv_tkDTykQoz-5">
          <mxGeometry relative="1" as="geometry" />
        </mxCell>
        <mxCell id="MHFzVE-wFv_tkDTykQoz-12" style="edgeStyle=orthogonalEdgeStyle;rounded=0;orthogonalLoop=1;jettySize=auto;html=1;exitX=0.5;exitY=1;exitDx=0;exitDy=0;" edge="1" parent="1" source="MHFzVE-wFv_tkDTykQoz-1" target="MHFzVE-wFv_tkDTykQoz-2">
          <mxGeometry relative="1" as="geometry" />
        </mxCell>
        <mxCell id="MHFzVE-wFv_tkDTykQoz-1" value="&lt;b style=&quot;caret-color: rgb(0, 0, 0); color: rgb(0, 0, 0); font-style: normal; font-variant-caps: normal; letter-spacing: normal; text-align: start; text-indent: 0px; text-transform: none; word-spacing: 0px; text-size-adjust: auto; -webkit-text-stroke-width: 0px; text-decoration: none; font-weight: normal;&quot; id=&quot;docs-internal-guid-d6e2dcf6-7fff-594e-4ab8-eda8bbb52713&quot;&gt;&lt;span style=&quot;font-size: 11pt; font-family: Arial; color: rgb(0, 0, 0); background-color: rgb(232, 234, 237); font-weight: 400; font-style: normal; font-variant-ligatures: normal; font-variant-caps: normal; font-variant-east-asian: normal; text-decoration: none; vertical-align: baseline;&quot;&gt;https://maps.googleapis.com/maps/api/place/&lt;/span&gt;&lt;/b&gt;" style="text;whiteSpace=wrap;html=1;" vertex="1" parent="1">
          <mxGeometry x="220" y="150" width="310" height="40" as="geometry" />
        </mxCell>
        <mxCell id="MHFzVE-wFv_tkDTykQoz-21" style="edgeStyle=orthogonalEdgeStyle;rounded=0;orthogonalLoop=1;jettySize=auto;html=1;exitX=0.5;exitY=1;exitDx=0;exitDy=0;entryX=0.5;entryY=0;entryDx=0;entryDy=0;" edge="1" parent="1" source="MHFzVE-wFv_tkDTykQoz-2" target="MHFzVE-wFv_tkDTykQoz-3">
          <mxGeometry relative="1" as="geometry" />
        </mxCell>
        <mxCell id="MHFzVE-wFv_tkDTykQoz-26" style="edgeStyle=orthogonalEdgeStyle;rounded=0;orthogonalLoop=1;jettySize=auto;html=1;exitX=0.5;exitY=1;exitDx=0;exitDy=0;entryX=0.5;entryY=0;entryDx=0;entryDy=0;" edge="1" parent="1" source="MHFzVE-wFv_tkDTykQoz-2" target="MHFzVE-wFv_tkDTykQoz-6">
          <mxGeometry relative="1" as="geometry" />
        </mxCell>
        <mxCell id="MHFzVE-wFv_tkDTykQoz-2" value="LIST OF NEARBY GYMS" style="whiteSpace=wrap;html=1;aspect=fixed;" vertex="1" parent="1">
          <mxGeometry x="110" y="370" width="80" height="80" as="geometry" />
        </mxCell>
        <mxCell id="MHFzVE-wFv_tkDTykQoz-3" value="GYM REVIEWS" style="whiteSpace=wrap;html=1;aspect=fixed;" vertex="1" parent="1">
          <mxGeometry x="220" y="640" width="80" height="80" as="geometry" />
        </mxCell>
        <mxCell id="MHFzVE-wFv_tkDTykQoz-4" value="GYM PHOTOS" style="whiteSpace=wrap;html=1;aspect=fixed;" vertex="1" parent="1">
          <mxGeometry x="400" y="370" width="80" height="80" as="geometry" />
        </mxCell>
        <mxCell id="MHFzVE-wFv_tkDTykQoz-22" style="edgeStyle=orthogonalEdgeStyle;rounded=0;orthogonalLoop=1;jettySize=auto;html=1;exitX=0.5;exitY=1;exitDx=0;exitDy=0;entryX=0.5;entryY=0;entryDx=0;entryDy=0;" edge="1" parent="1" source="MHFzVE-wFv_tkDTykQoz-5" target="MHFzVE-wFv_tkDTykQoz-3">
          <mxGeometry relative="1" as="geometry" />
        </mxCell>
        <mxCell id="MHFzVE-wFv_tkDTykQoz-25" style="edgeStyle=orthogonalEdgeStyle;rounded=0;orthogonalLoop=1;jettySize=auto;html=1;exitX=0.5;exitY=1;exitDx=0;exitDy=0;" edge="1" parent="1" source="MHFzVE-wFv_tkDTykQoz-5" target="MHFzVE-wFv_tkDTykQoz-6">
          <mxGeometry relative="1" as="geometry" />
        </mxCell>
        <mxCell id="MHFzVE-wFv_tkDTykQoz-5" value="PLACE SEARCH RESULT" style="whiteSpace=wrap;html=1;aspect=fixed;" vertex="1" parent="1">
          <mxGeometry x="540" y="370" width="80" height="80" as="geometry" />
        </mxCell>
        <mxCell id="MHFzVE-wFv_tkDTykQoz-6" value="ROUTE / DIRECTION" style="whiteSpace=wrap;html=1;aspect=fixed;" vertex="1" parent="1">
          <mxGeometry x="400" y="640" width="80" height="80" as="geometry" />
        </mxCell>
        <mxCell id="MHFzVE-wFv_tkDTykQoz-13" value="&lt;b style=&quot;caret-color: rgb(0, 0, 0); color: rgb(0, 0, 0); font-style: normal; font-variant-caps: normal; letter-spacing: normal; text-align: start; text-indent: 0px; text-transform: none; word-spacing: 0px; text-size-adjust: auto; -webkit-text-stroke-width: 0px; text-decoration: none; font-weight: normal;&quot; id=&quot;docs-internal-guid-9107962c-7fff-5e69-2688-9ee7e3d1a205&quot;&gt;&lt;span style=&quot;font-size: 11pt; font-family: Arial; color: rgb(0, 0, 0); background-color: rgb(232, 234, 237); font-weight: 400; font-style: normal; font-variant-ligatures: normal; font-variant-caps: normal; font-variant-east-asian: normal; text-decoration: none; vertical-align: baseline;&quot;&gt;nearbysearch/?&lt;/span&gt;&lt;/b&gt;" style="text;whiteSpace=wrap;html=1;" vertex="1" parent="1">
          <mxGeometry x="110" y="310" width="130" height="40" as="geometry" />
        </mxCell>
        <mxCell id="MHFzVE-wFv_tkDTykQoz-15" value="&lt;b style=&quot;caret-color: rgb(0, 0, 0); color: rgb(0, 0, 0); font-style: normal; font-variant-caps: normal; letter-spacing: normal; text-align: start; text-indent: 0px; text-transform: none; word-spacing: 0px; text-size-adjust: auto; -webkit-text-stroke-width: 0px; text-decoration: none; font-weight: normal;&quot; id=&quot;docs-internal-guid-ea26be59-7fff-89ab-5ed8-0863d858acdd&quot;&gt;&lt;span style=&quot;font-size: 11pt; font-family: Arial; color: rgb(0, 0, 0); background-color: rgb(232, 234, 237); font-weight: 400; font-style: normal; font-variant-ligatures: normal; font-variant-caps: normal; font-variant-east-asian: normal; text-decoration: none; vertical-align: baseline;&quot;&gt;findplacefromtext/&lt;/span&gt;&lt;/b&gt;" style="text;whiteSpace=wrap;html=1;" vertex="1" parent="1">
          <mxGeometry x="520" y="310" width="150" height="40" as="geometry" />
        </mxCell>
        <mxCell id="MHFzVE-wFv_tkDTykQoz-16" value="&lt;b style=&quot;caret-color: rgb(0, 0, 0); color: rgb(0, 0, 0); font-style: normal; font-variant-caps: normal; letter-spacing: normal; text-align: start; text-indent: 0px; text-transform: none; word-spacing: 0px; text-size-adjust: auto; -webkit-text-stroke-width: 0px; text-decoration: none; font-weight: normal;&quot; id=&quot;docs-internal-guid-336be588-7fff-6711-ef1c-b657025443dd&quot;&gt;&lt;span style=&quot;font-size: 11pt; font-family: Arial; color: rgb(0, 0, 0); background-color: rgb(232, 234, 237); font-weight: 400; font-style: normal; font-variant-ligatures: normal; font-variant-caps: normal; font-variant-east-asian: normal; text-decoration: none; vertical-align: baseline;&quot;&gt;/photo&lt;/span&gt;&lt;/b&gt;" style="text;whiteSpace=wrap;html=1;" vertex="1" parent="1">
          <mxGeometry x="414" y="310" width="70" height="40" as="geometry" />
        </mxCell>
        <mxCell id="MHFzVE-wFv_tkDTykQoz-18" value="&lt;b style=&quot;caret-color: rgb(0, 0, 0); color: rgb(0, 0, 0); font-style: normal; font-variant-caps: normal; letter-spacing: normal; text-align: start; text-indent: 0px; text-transform: none; word-spacing: 0px; text-size-adjust: auto; -webkit-text-stroke-width: 0px; text-decoration: none; font-weight: normal;&quot; id=&quot;docs-internal-guid-117c5da2-7fff-95d0-b2d9-f126aa2f8fb6&quot;&gt;&lt;span style=&quot;font-size: 11pt; font-family: Arial; color: rgb(0, 0, 0); background-color: rgb(232, 234, 237); font-weight: 400; font-style: normal; font-variant-ligatures: normal; font-variant-caps: normal; font-variant-east-asian: normal; text-decoration: none; vertical-align: baseline;&quot;&gt;details/&lt;/span&gt;&lt;/b&gt;" style="text;whiteSpace=wrap;html=1;" vertex="1" parent="1">
          <mxGeometry x="240" y="585" width="80" height="40" as="geometry" />
        </mxCell>
        <mxCell id="MHFzVE-wFv_tkDTykQoz-23" value="Place ID" style="text;html=1;align=center;verticalAlign=middle;resizable=0;points=[];autosize=1;strokeColor=none;fillColor=none;" vertex="1" parent="1">
          <mxGeometry x="329" y="510" width="70" height="30" as="geometry" />
        </mxCell>
        <mxCell id="MHFzVE-wFv_tkDTykQoz-27" value="Redirect to Googel Maps" style="text;html=1;align=center;verticalAlign=middle;resizable=0;points=[];autosize=1;strokeColor=none;fillColor=none;" vertex="1" parent="1">
          <mxGeometry x="370" y="585" width="160" height="30" as="geometry" />
        </mxCell>
      </root>
    </mxGraphModel>
  </diagram>
</mxfile>
